<svg width="49" height="48" viewBox="0 0 49 48" fill="none" xmlns="http://www.w3.org/2000/svg">
<g clip-path="url(#clip0_894_518)">
<path d="M40.3217 0H8.67586C3.88364 0 -0.0012207 3.90316 -0.0012207 8.71795V39.2821C-0.0012207 44.0968 3.88364 48 8.67586 48H40.3217C45.1139 48 48.9988 44.0968 48.9988 39.2821V8.71795C48.9988 3.90316 45.1139 0 40.3217 0Z" fill="#00005B"/>
<path d="M19.6847 28.718H12.0914L10.5465 33.5489C10.5255 33.6369 10.4746 33.7147 10.4026 33.7689C10.3306 33.8232 10.242 33.8505 10.152 33.8462H6.30617C6.08685 33.8462 6.01015 33.7251 6.07608 33.4829L12.6503 14.5387C12.716 14.3406 12.7818 14.1469 12.8475 13.8935C12.9336 13.4529 12.9776 13.005 12.979 12.556C12.9745 12.5246 12.9774 12.4926 12.9874 12.4625C12.9974 12.4324 13.0142 12.4051 13.0365 12.3826C13.0588 12.3602 13.086 12.3433 13.116 12.3333C13.1459 12.3232 13.1778 12.3203 13.2091 12.3248H18.4355C18.5886 12.3248 18.6762 12.3798 18.6985 12.49L26.1602 33.5159C26.2259 33.7362 26.1602 33.8463 25.963 33.8462H21.6898C21.6164 33.8543 21.5425 33.8354 21.482 33.7928C21.4215 33.7503 21.3785 33.6871 21.3611 33.615L19.6847 28.718ZM13.2748 24.6446H18.4684C18.3369 24.2044 18.1835 23.709 18.0082 23.1584C17.8325 22.6083 17.6463 22.0194 17.4494 21.3915C17.2522 20.7641 17.055 20.1366 16.8577 19.5091C16.6605 18.8816 16.4797 18.2761 16.3153 17.6927C16.151 17.1096 16.0031 16.5757 15.8716 16.0909H15.8387C15.6537 16.9829 15.4233 17.8647 15.1484 18.733C14.8413 19.7238 14.529 20.7365 14.2116 21.7713C13.8937 22.8065 13.5815 23.7642 13.2748 24.6446Z" fill="#9999FF"/>
<path d="M38.2569 26.8377H31.7814C31.8607 27.4815 32.0735 28.1013 32.406 28.6573C32.7736 29.2079 33.2934 29.6384 33.9015 29.8957C34.7257 30.2541 35.617 30.4296 36.5148 30.4104C37.2271 30.3966 37.9367 30.3184 38.635 30.1765C39.2595 30.0918 39.8716 29.9315 40.4578 29.6991C40.5672 29.6114 40.6222 29.6661 40.6222 29.8642V33.0017C40.6276 33.0871 40.6106 33.1726 40.5729 33.2494C40.5352 33.3094 40.4847 33.3602 40.4249 33.3979C39.7747 33.6873 39.0903 33.8922 38.3884 34.0075C37.4349 34.1874 36.4658 34.2704 35.4958 34.2552C33.9395 34.2552 32.6356 34.013 31.5841 33.5286C30.5901 33.0886 29.7121 32.4214 29.0203 31.5801C28.374 30.7874 27.8933 29.872 27.6068 28.8885C27.3231 27.9178 27.1792 26.9113 27.1795 25.8997C27.1765 24.795 27.3484 23.697 27.689 22.6467C28.017 21.6221 28.5356 20.6695 29.2175 19.8395C29.89 19.0191 30.7309 18.3545 31.6828 17.8909C32.6468 17.4177 33.7865 17.248 35.1013 17.248C36.1917 17.2203 37.2748 17.4345 38.2734 17.8754C39.1131 18.2352 39.8523 18.7962 40.4264 19.5092C40.9649 20.2074 41.3766 20.9956 41.6426 21.8375C41.9016 22.6489 42.0347 23.4954 42.0371 24.3475C42.0371 24.832 42.0207 25.2723 41.9878 25.6685C41.955 26.0648 41.9276 26.351 41.9056 26.5272C41.8971 26.6 41.8622 26.6671 41.8077 26.7158C41.7531 26.7645 41.6827 26.7914 41.6097 26.7914C41.4782 26.7914 41.2536 26.8079 40.9359 26.8409C40.618 26.8739 40.2236 26.8959 39.7526 26.907C39.2811 26.9183 38.7829 26.8377 38.2569 26.8377ZM31.7814 23.8292H36.0875C36.6134 23.8292 37.0024 23.8237 37.2543 23.8126C37.423 23.7957 37.5858 23.7415 37.7311 23.6539V23.4557C37.7244 23.1975 37.6801 22.9415 37.5996 22.6962C37.4222 22.1327 37.0656 21.6434 36.5846 21.3033C36.1036 20.9632 35.5248 20.7912 34.937 20.8137C34.3839 20.7801 33.8329 20.909 33.3513 21.1846C32.8698 21.4602 32.4785 21.8707 32.2252 22.3659C32 22.8265 31.8501 23.3206 31.7814 23.8292Z" fill="#9999FF"/>
</g>
<defs>
<clipPath id="clip0_894_518">
<rect width="49" height="48" fill="white"/>
</clipPath>
</defs>
</svg>
